<svg width="14" height="14" viewBox="0 0 14 14" fill="none" xmlns="http://www.w3.org/2000/svg">
<path fill-rule="evenodd" clip-rule="evenodd" d="M1.16675 1.75016C1.16675 1.10583 1.68908 0.583496 2.33341 0.583496H11.6667C12.3111 0.583496 12.8334 1.10583 12.8334 1.75016V3.25854C12.8334 3.56796 12.7105 3.8647 12.4917 4.0835L8.75008 7.82512L8.75008 10.5002C8.75008 10.6549 8.68862 10.8032 8.57923 10.9126L6.24589 13.246C6.07906 13.4128 5.82816 13.4627 5.61018 13.3724C5.39221 13.2821 5.25008 13.0694 5.25008 12.8335V7.82512L1.50846 4.0835C1.28966 3.8647 1.16675 3.56796 1.16675 3.25854V1.75016ZM11.6667 1.75016L2.33341 1.75016V3.25854L6.07504 7.00016C6.29383 7.21896 6.41675 7.5157 6.41675 7.82512V11.4252L7.58341 10.2585V7.82512C7.58341 7.5157 7.70633 7.21896 7.92512 7.00016L11.6667 3.25854L11.6667 1.75016Z" fill="black"/>
</svg>
