<svg width="25" height="24" viewBox="0 0 25 24" fill="none" xmlns="http://www.w3.org/2000/svg">
<path fill-rule="evenodd" clip-rule="evenodd" d="M12.4928 3.71691C10.1529 1.67202 6.69239 1.25356 4.00509 3.54965C1.0983 6.03328 0.675971 10.2161 2.97459 13.1739C3.88454 14.3449 5.70074 16.1325 7.40703 17.7357C9.1337 19.3581 10.8163 20.8547 11.5059 21.4634C12.0716 21.9627 12.9147 21.9627 13.4804 21.4634C14.17 20.8547 15.8526 19.3581 17.5793 17.7357C19.2855 16.1325 21.1018 14.3449 22.0117 13.1739C24.3015 10.2275 23.9444 6.01238 20.9708 3.54088C18.2536 1.28246 14.83 1.67124 12.4928 3.71691ZM11.7332 5.78575C10.0282 3.79238 7.31788 3.34975 5.30429 5.07021C3.20097 6.86733 2.91795 9.84171 4.55379 11.9467C5.35198 12.9738 7.05126 14.6571 8.77654 16.2782C10.2462 17.6591 11.6863 18.9502 12.4931 19.6663C13.3 18.9502 14.7401 17.6591 16.2097 16.2782C17.935 14.6571 19.6343 12.9738 20.4325 11.9467C22.0772 9.83034 21.815 6.84319 19.6924 5.07898C17.6255 3.36105 14.9506 3.80119 13.2531 5.78575C13.0631 6.00786 12.7854 6.13573 12.4931 6.13573C12.2009 6.13573 11.9232 6.00786 11.7332 5.78575Z" fill="#737373"/>
</svg>
