<svg width="16" height="16" viewBox="0 0 16 16" fill="none" xmlns="http://www.w3.org/2000/svg">
<path fill-rule="evenodd" clip-rule="evenodd" d="M7.99533 2.47806C6.4354 1.1148 4.12842 0.835832 2.33689 2.36656C0.39903 4.02231 0.117477 6.81085 1.64989 8.78275C2.25652 9.56336 3.46732 10.7551 4.60485 11.8239C5.75596 12.9055 6.87768 13.9032 7.33743 14.309C7.71454 14.6419 8.27665 14.6419 8.65376 14.309C9.11351 13.9032 10.2352 12.9055 11.3863 11.8239C12.5239 10.7551 13.7347 9.56336 14.3413 8.78275C15.8678 6.81842 15.6298 4.00838 13.6474 2.36071C11.8359 0.855095 9.55351 1.11428 7.99533 2.47806ZM7.48898 3.85729C6.35227 2.52838 4.54542 2.23329 3.20302 3.38026C1.80081 4.57834 1.61213 6.56126 2.70269 7.96459C3.23481 8.64932 4.36767 9.77152 5.51786 10.8522C6.49764 11.7728 7.4577 12.6336 7.99559 13.111C8.53348 12.6336 9.49354 11.7728 10.4733 10.8522C11.6235 9.77152 12.7564 8.64932 13.2885 7.96459C14.3849 6.55368 14.2102 4.56225 12.7951 3.38611C11.4171 2.24082 9.63389 2.53425 8.50221 3.85729C8.37555 4.00536 8.19045 4.09061 7.99559 4.09061C7.80074 4.09061 7.61564 4.00536 7.48898 3.85729Z" fill="black"/>
</svg>
