<svg width="25" height="24" viewBox="0 0 25 24" fill="none" xmlns="http://www.w3.org/2000/svg">
<path fill-rule="evenodd" clip-rule="evenodd" d="M13.1477 1.73806C12.7742 1.42065 12.2258 1.42065 11.8524 1.73806L1.85237 10.2381C1.43156 10.5957 1.38039 11.2268 1.73808 11.6476C2.09577 12.0685 2.72686 12.1196 3.14767 11.7619L3.50002 11.4624V19C3.50002 20.6569 4.84317 22 6.50002 22H18.5C20.1569 22 21.5 20.6569 21.5 19V11.4624L21.8524 11.7619C22.2732 12.1196 22.9043 12.0685 23.262 11.6476C23.6196 11.2268 23.5685 10.5957 23.1477 10.2381L13.1477 1.73806ZM12.5 11C14.1569 11 15.5 12.3431 15.5 14C15.5 15.6569 14.1569 17 12.5 17C10.8431 17 9.5 15.6569 9.5 14C9.5 12.3431 10.8431 11 12.5 11Z" fill="#1A1A1A"/>
</svg>
