<svg width="24" height="24" viewBox="0 0 24 24" fill="none" xmlns="http://www.w3.org/2000/svg">
<path fill-rule="evenodd" clip-rule="evenodd" d="M9 8C9 4.13401 12.134 1 16 1C19.866 1 23 4.13401 23 8C23 11.866 19.866 15 16 15C15.5376 15 15.0847 14.955 14.6458 14.8689C14.6056 14.861 14.5735 14.8642 14.5545 14.8692C14.5458 14.8715 14.5413 14.8737 14.5394 14.8748L12.7071 16.7071C12.5196 16.8946 12.2652 17 12 17H11V18C11 18.5523 10.5523 19 10 19H9V20C9 20.5523 8.55228 21 8 21H7V22C7 22.5523 6.55228 23 6 23H3C1.89543 23 1 22.1046 1 21V18.4142C1 17.8838 1.21071 17.3751 1.58579 17L9.12521 9.46058C9.12628 9.45875 9.12849 9.45419 9.1308 9.44552C9.13585 9.42649 9.13896 9.39436 9.13108 9.35422C9.04497 8.9153 9 8.46241 9 8ZM9 17V16C9 15.4477 9.44772 15 10 15H11.5858L13.1263 13.4595C13.6601 12.9257 14.3977 12.7821 15.0308 12.9063C15.3436 12.9677 15.6675 13 16 13C18.7614 13 21 10.7614 21 8C21 5.23858 18.7614 3 16 3C13.2386 3 11 5.23858 11 8C11 8.33248 11.0323 8.65642 11.0937 8.96919C11.2179 9.60228 11.0743 10.3399 10.5405 10.8737L3 18.4142V21H5V20C5 19.4477 5.44772 19 6 19H7V18C7 17.4477 7.44772 17 8 17H9ZM15 8C15 7.44772 15.4477 7 16 7H16.01C16.5623 7 17.01 7.44772 17.01 8C17.01 8.55228 16.5623 9 16.01 9H16C15.4477 9 15 8.55228 15 8Z" fill="#1A1A1A"/>
</svg>
