<svg width="24" height="24" viewBox="0 0 24 24" fill="none" xmlns="http://www.w3.org/2000/svg">
<path fill-rule="evenodd" clip-rule="evenodd" d="M1 2C1 1.44772 1.44772 1 2 1H5C5.48122 1 5.89419 1.34274 5.98287 1.81571L6.57993 5H22C22.328 5 22.6351 5.16083 22.8219 5.43041C23.0087 5.69998 23.0515 6.04403 22.9363 6.35112L19.9363 14.3511C19.79 14.7414 19.4168 15 19 15H8.45493L8.82993 17H18C18.5523 17 19 17.4477 19 18C19 18.5523 18.5523 19 18 19H8C7.51878 19 7.10581 18.6573 7.01713 18.1843L4.17007 3H2C1.44772 3 1 2.55228 1 2ZM8.07993 13H18.307L20.557 7H6.95493L8.07993 13ZM8 21.5C8 20.6716 8.67157 20 9.5 20C10.3284 20 11 20.6716 11 21.5C11 22.3284 10.3284 23 9.5 23C8.67157 23 8 22.3284 8 21.5ZM15 21.5C15 20.6716 15.6716 20 16.5 20C17.3284 20 18 20.6716 18 21.5C18 22.3284 17.3284 23 16.5 23C15.6716 23 15 22.3284 15 21.5Z" fill="#1A1A1A"/>
<rect x="16" y="1" width="8" height="8" rx="4" fill="#FFBC39"/>
</svg>
