<svg width="40" height="40" viewBox="0 0 40 40" fill="none" xmlns="http://www.w3.org/2000/svg">
<rect width="40" height="40" rx="3.33333" fill="#1A1A1A"/>
<path fill-rule="evenodd" clip-rule="evenodd" d="M10 12.7273C10 11.221 11.221 10 12.7273 10H14.7093C15.576 10 16.3222 10.6117 16.4921 11.4616L17.1597 14.7992C17.2789 15.3953 17.0923 16.0115 16.6624 16.4414L15.2672 17.8366C15.0325 18.0714 14.9725 18.3654 15.0466 18.5898C16.0363 21.5901 18.4099 23.9637 21.4102 24.9534C21.6346 25.0275 21.9286 24.9675 22.1634 24.7328L23.5586 23.3376C23.9885 22.9077 24.6047 22.7211 25.2008 22.8403L28.5384 23.5079C29.3883 23.6778 30 24.424 30 25.2907V27.2727C30 28.779 28.779 30 27.2727 30H24.5455C16.5122 30 10 23.4878 10 15.4545V12.7273Z" fill="white"/>
</svg>
