<svg width="17" height="17" viewBox="0 0 17 17" fill="none" xmlns="http://www.w3.org/2000/svg">
<g clip-path="url(#clip0_1298_925)">
<path fill-rule="evenodd" clip-rule="evenodd" d="M4.72722 2.36437C4.99945 1.54769 5.76373 0.996826 6.62459 0.996826H10.0359C10.8968 0.996826 11.661 1.54769 11.9333 2.36437L12.1441 2.99683H12.9969H14.3302C14.6984 2.99683 14.9969 3.2953 14.9969 3.66349C14.9969 4.03168 14.6984 4.33016 14.3302 4.33016H13.6636V13.6635C13.6636 14.7681 12.7681 15.6635 11.6636 15.6635H4.99691C3.89234 15.6635 2.99691 14.7681 2.99691 13.6635V4.33016H2.33024C1.96205 4.33016 1.66357 4.03168 1.66357 3.66349C1.66357 3.2953 1.96205 2.99683 2.33024 2.99683H3.66357H4.5164L4.72722 2.36437ZM5.92186 2.99683H10.7386L10.6684 2.78601C10.5776 2.51378 10.3228 2.33016 10.0359 2.33016H6.62459C6.33763 2.33016 6.08287 2.51378 5.99213 2.78601L5.92186 2.99683ZM4.33024 4.33016V13.6635C4.33024 14.0317 4.62872 14.3302 4.99691 14.3302H11.6636C12.0318 14.3302 12.3302 14.0317 12.3302 13.6635V4.33016H11.6636H4.99691H4.33024ZM6.99691 6.33016C7.3651 6.33016 7.66357 6.62864 7.66357 6.99683V11.6635C7.66357 12.0317 7.3651 12.3302 6.99691 12.3302C6.62872 12.3302 6.33024 12.0317 6.33024 11.6635V6.99683C6.33024 6.62864 6.62872 6.33016 6.99691 6.33016ZM9.66357 6.33016C10.0318 6.33016 10.3302 6.62864 10.3302 6.99683V11.6635C10.3302 12.0317 10.0318 12.3302 9.66357 12.3302C9.29538 12.3302 8.99691 12.0317 8.99691 11.6635V6.99683C8.99691 6.62864 9.29538 6.33016 9.66357 6.33016Z" fill="black"/>
</g>
<defs>
<clipPath id="clip0_1298_925">
<rect width="16" height="16" fill="white" transform="translate(0.330078 0.330078)"/>
</clipPath>
</defs>
</svg>
