<svg width="40" height="40" viewBox="0 0 40 40" fill="none" xmlns="http://www.w3.org/2000/svg">
<g clip-path="url(#clip0_93_2881)">
<path d="M0 0H39.8095V39.8095H0V0Z" fill="#00D95F"/>
<path d="M9.95215 29.1202L11.3803 23.8101C10.2285 21.7416 9.86263 19.3277 10.3497 17.0116C10.8367 14.6954 12.1441 12.6323 14.0318 11.2008C15.9195 9.76927 18.2611 9.0654 20.6267 9.21831C22.9923 9.37127 25.2234 10.3707 26.9104 12.0334C28.5975 13.696 29.6274 15.9102 29.8112 18.2697C29.9949 20.6292 29.3203 22.9757 27.9109 24.8787C26.5016 26.7817 24.4521 28.1135 22.1386 28.6297C19.8251 29.1458 17.4028 28.8118 15.3161 27.6888L9.95215 29.1202ZM15.5747 25.7017L15.9064 25.8982C17.4178 26.7926 19.1832 27.1627 20.9274 26.9509C22.6715 26.7391 24.2965 25.9571 25.549 24.7271C26.8016 23.497 27.6114 21.8878 27.8522 20.1502C28.093 18.4127 27.7514 16.6444 26.8805 15.121C26.0095 13.5975 24.6583 12.4045 23.0373 11.7278C21.4163 11.0511 19.6167 10.9287 17.9187 11.3797C16.2208 11.8307 14.72 12.8298 13.6502 14.2213C12.5805 15.6128 12.0018 17.3185 12.0044 19.0726C12.003 20.527 12.4058 21.9533 13.1682 23.1927L13.3763 23.5351L12.5779 26.4988L15.5747 25.7017Z" fill="white"/>
<path fill-rule="evenodd" clip-rule="evenodd" d="M23.6259 20.4365C23.4314 20.28 23.2037 20.1698 22.9601 20.1143C22.7166 20.0588 22.4635 20.0596 22.2202 20.1166C21.8548 20.2681 21.6186 20.8407 21.3825 21.127C21.3327 21.1956 21.2596 21.2437 21.1767 21.2623C21.0939 21.2809 21.0072 21.2687 20.9327 21.228C19.5947 20.7048 18.4732 19.7454 17.7504 18.5056C17.6887 18.4282 17.6595 18.33 17.6689 18.2316C17.6784 18.1332 17.7257 18.0422 17.8009 17.978C18.0643 17.7177 18.2577 17.3952 18.3632 17.0406C18.3866 16.6493 18.2969 16.2596 18.1046 15.9179C17.9559 15.4389 17.673 15.0123 17.2893 14.6886C17.0914 14.5998 16.8719 14.57 16.6575 14.6028C16.443 14.6357 16.2426 14.7298 16.0805 14.8739C15.799 15.1163 15.5757 15.4186 15.4268 15.7586C15.2779 16.0986 15.2073 16.4676 15.2203 16.8385C15.2211 17.0468 15.2476 17.2541 15.2989 17.4559C15.4295 17.9409 15.6303 18.4041 15.8949 18.8312C16.0859 19.1583 16.2942 19.4749 16.519 19.7798C17.2497 20.7812 18.1682 21.6314 19.2235 22.2833C19.753 22.6145 20.319 22.8839 20.9102 23.086C21.5244 23.3639 22.2025 23.4706 22.8725 23.3947C23.2542 23.337 23.6159 23.1865 23.9257 22.9565C24.2356 22.7265 24.484 22.424 24.6492 22.0756C24.7463 21.8651 24.7757 21.6298 24.7335 21.402C24.6323 20.9361 24.0082 20.6611 23.6259 20.4365Z" fill="white"/>
</g>
<defs>
<clipPath id="clip0_93_2881">
<rect width="40" height="40" rx="3.33333" fill="white"/>
</clipPath>
</defs>
</svg>
